<svg xmlns="http://www.w3.org/2000/svg" width="1480" height="920"><rect width="100%" height="100%" fill="white"/><text x="130" y="44" font-size="28" font-family="Arial" fill="#111">Joint Sweep: S(尻尾カット) × D(方向整流)</text><text x="130" y="74" font-size="15" fill="#444">基準: RSLT_2214 + ReportHistory-20049725 / 想定モデル（安全側減衰付き）</text><text x="84" y="152.7" font-size="13" fill="#444">D0</text><text x="84" y="221.6" font-size="13" fill="#444">D1</text><text x="84" y="290.5" font-size="13" fill="#444">D2</text><text x="84" y="359.4" font-size="13" fill="#444">D3</text><text x="84" y="428.3" font-size="13" fill="#444">D4</text><text x="84" y="497.2" font-size="13" fill="#444">D5</text><text x="84" y="566.0" font-size="13" fill="#444">D6</text><text x="84" y="634.9" font-size="13" fill="#444">D7</text><text x="84" y="703.8" font-size="13" fill="#444">D8</text><text x="157.1" y="756.0" font-size="13" fill="#444">S0</text><text x="232.5" y="756.0" font-size="13" fill="#444">S1</text><text x="307.9" y="756.0" font-size="13" fill="#444">S2</text><text x="383.3" y="756.0" font-size="13" fill="#444">S3</text><text x="458.7" y="756.0" font-size="13" fill="#444">S4</text><text x="534.1" y="756.0" font-size="13" fill="#444">S5</text><text x="609.4" y="756.0" font-size="13" fill="#444">S6</text><text x="684.8" y="756.0" font-size="13" fill="#444">S7</text><text x="760.2" y="756.0" font-size="13" fill="#444">S8</text><text x="835.6" y="756.0" font-size="13" fill="#444">S9</text><text x="911.0" y="756.0" font-size="13" fill="#444">S10</text><text x="986.4" y="756.0" font-size="13" fill="#444">S11</text><text x="1061.8" y="756.0" font-size="13" fill="#444">S12</text><rect x="130.0" y="110.0" width="75.4" height="68.9" fill="rgb(230,70,160)" stroke="#eee" stroke-width="1"/><text x="138.0" y="130.0" font-size="12" fill="#fff">-168.0</text><text x="138.0" y="147.0" font-size="11" fill="#fff">L8:4</text><rect x="205.4" y="110.0" width="75.4" height="68.9" fill="rgb(229,70,159)" stroke="#eee" stroke-width="1"/><text x="213.4" y="130.0" font-size="12" fill="#fff">-167.1</text><text x="213.4" y="147.0" font-size="11" fill="#fff">L8:4</text><rect x="280.8" y="110.0" width="75.4" height="68.9" fill="rgb(228,71,159)" stroke="#eee" stroke-width="1"/><text x="288.8" y="130.0" font-size="12" fill="#fff">-166.2</text><text x="288.8" y="147.0" font-size="11" fill="#fff">L8:4</text><rect x="356.2" y="110.0" width="75.4" height="68.9" fill="rgb(228,72,158)" stroke="#eee" stroke-width="1"/><text x="364.2" y="130.0" font-size="12" fill="#fff">-165.3</text><text x="364.2" y="147.0" font-size="11" fill="#fff">L8:4</text><rect x="431.5" y="110.0" width="75.4" height="68.9" fill="rgb(227,72,158)" stroke="#eee" stroke-width="1"/><text x="439.5" y="130.0" font-size="12" fill="#fff">-164.5</text><text x="439.5" y="147.0" font-size="11" fill="#fff">L8:4</text><rect x="506.9" y="110.0" width="75.4" height="68.9" fill="rgb(226,73,158)" stroke="#eee" stroke-width="1"/><text x="514.9" y="130.0" font-size="12" fill="#fff">-163.4</text><text x="514.9" y="147.0" font-size="11" fill="#fff">L8:4</text><rect x="582.3" y="110.0" width="75.4" height="68.9" fill="rgb(226,74,157)" stroke="#111" stroke-width="2"/><text x="590.3" y="130.0" font-size="12" fill="#fff">-162.2</text><text x="590.3" y="147.0" font-size="11" fill="#fff">L8:3</text><rect x="657.7" y="110.0" width="75.4" height="68.9" fill="rgb(225,75,157)" stroke="#eee" stroke-width="1"/><text x="665.7" y="130.0" font-size="12" fill="#fff">-160.8</text><text x="665.7" y="147.0" font-size="11" fill="#fff">L8:2</text><rect x="733.1" y="110.0" width="75.4" height="68.9" fill="rgb(224,76,156)" stroke="#eee" stroke-width="1"/><text x="741.1" y="130.0" font-size="12" fill="#fff">-159.3</text><text x="741.1" y="147.0" font-size="11" fill="#fff">L8:2</text><rect x="808.5" y="110.0" width="75.4" height="68.9" fill="rgb(222,78,155)" stroke="#eee" stroke-width="1"/><text x="816.5" y="130.0" font-size="12" fill="#fff">-157.5</text><text x="816.5" y="147.0" font-size="11" fill="#fff">L8:2</text><rect x="883.8" y="110.0" width="75.4" height="68.9" fill="rgb(221,79,155)" stroke="#eee" stroke-width="1"/><text x="891.8" y="130.0" font-size="12" fill="#fff">-155.4</text><text x="891.8" y="147.0" font-size="11" fill="#fff">L8:0</text><rect x="959.2" y="110.0" width="75.4" height="68.9" fill="rgb(219,81,154)" stroke="#eee" stroke-width="1"/><text x="967.2" y="130.0" font-size="12" fill="#fff">-152.9</text><text x="967.2" y="147.0" font-size="11" fill="#fff">L8:0</text><rect x="1034.6" y="110.0" width="75.4" height="68.9" fill="rgb(217,83,153)" stroke="#eee" stroke-width="1"/><text x="1042.6" y="130.0" font-size="12" fill="#fff">-149.7</text><text x="1042.6" y="147.0" font-size="11" fill="#fff">L8:0</text><rect x="130.0" y="178.9" width="75.4" height="68.9" fill="rgb(211,91,149)" stroke="#eee" stroke-width="1"/><text x="138.0" y="198.9" font-size="12" fill="#fff">-139.6</text><text x="138.0" y="215.9" font-size="11" fill="#fff">L8:3</text><rect x="205.4" y="178.9" width="75.4" height="68.9" fill="rgb(209,93,148)" stroke="#eee" stroke-width="1"/><text x="213.4" y="198.9" font-size="12" fill="#fff">-137.7</text><text x="213.4" y="215.9" font-size="11" fill="#fff">L8:3</text><rect x="280.8" y="178.9" width="75.4" height="68.9" fill="rgb(208,94,147)" stroke="#eee" stroke-width="1"/><text x="288.8" y="198.9" font-size="12" fill="#fff">-135.8</text><text x="288.8" y="215.9" font-size="11" fill="#fff">L8:3</text><rect x="356.2" y="178.9" width="75.4" height="68.9" fill="rgb(207,96,146)" stroke="#eee" stroke-width="1"/><text x="364.2" y="198.9" font-size="12" fill="#fff">-133.8</text><text x="364.2" y="215.9" font-size="11" fill="#fff">L8:3</text><rect x="431.5" y="178.9" width="75.4" height="68.9" fill="rgb(205,97,146)" stroke="#eee" stroke-width="1"/><text x="439.5" y="198.9" font-size="12" fill="#fff">-131.9</text><text x="439.5" y="215.9" font-size="11" fill="#fff">L8:3</text><rect x="506.9" y="178.9" width="75.4" height="68.9" fill="rgb(204,99,145)" stroke="#eee" stroke-width="1"/><text x="514.9" y="198.9" font-size="12" fill="#fff">-129.8</text><text x="514.9" y="215.9" font-size="11" fill="#fff">L8:3</text><rect x="582.3" y="178.9" width="75.4" height="68.9" fill="rgb(203,100,144)" stroke="#eee" stroke-width="1"/><text x="590.3" y="198.9" font-size="12" fill="#fff">-127.6</text><text x="590.3" y="215.9" font-size="11" fill="#fff">L8:2</text><rect x="657.7" y="178.9" width="75.4" height="68.9" fill="rgb(202,101,144)" stroke="#eee" stroke-width="1"/><text x="665.7" y="198.9" font-size="12" fill="#fff">-127.2</text><text x="665.7" y="215.9" font-size="11" fill="#fff">L8:1</text><rect x="733.1" y="178.9" width="75.4" height="68.9" fill="rgb(202,101,144)" stroke="#eee" stroke-width="1"/><text x="741.1" y="198.9" font-size="12" fill="#fff">-126.8</text><text x="741.1" y="215.9" font-size="11" fill="#fff">L8:1</text><rect x="808.5" y="178.9" width="75.4" height="68.9" fill="rgb(201,102,143)" stroke="#eee" stroke-width="1"/><text x="816.5" y="198.9" font-size="12" fill="#fff">-125.9</text><text x="816.5" y="215.9" font-size="11" fill="#fff">L8:1</text><rect x="883.8" y="178.9" width="75.4" height="68.9" fill="rgb(201,102,143)" stroke="#eee" stroke-width="1"/><text x="891.8" y="198.9" font-size="12" fill="#fff">-124.9</text><text x="891.8" y="215.9" font-size="11" fill="#fff">L8:0</text><rect x="959.2" y="178.9" width="75.4" height="68.9" fill="rgb(200,103,143)" stroke="#eee" stroke-width="1"/><text x="967.2" y="198.9" font-size="12" fill="#fff">-123.5</text><text x="967.2" y="215.9" font-size="11" fill="#fff">L8:0</text><rect x="1034.6" y="178.9" width="75.4" height="68.9" fill="rgb(198,105,142)" stroke="#eee" stroke-width="1"/><text x="1042.6" y="198.9" font-size="12" fill="#fff">-121.3</text><text x="1042.6" y="215.9" font-size="11" fill="#fff">L8:0</text><rect x="130.0" y="247.8" width="75.4" height="68.9" fill="rgb(198,106,141)" stroke="#eee" stroke-width="1"/><text x="138.0" y="267.8" font-size="12" fill="#fff">-120.7</text><text x="138.0" y="284.8" font-size="11" fill="#fff">L8:2</text><rect x="205.4" y="247.8" width="75.4" height="68.9" fill="rgb(196,108,140)" stroke="#eee" stroke-width="1"/><text x="213.4" y="267.8" font-size="12" fill="#fff">-118.1</text><text x="213.4" y="284.8" font-size="11" fill="#fff">L8:1</text><rect x="280.8" y="247.8" width="75.4" height="68.9" fill="rgb(194,110,139)" stroke="#eee" stroke-width="1"/><text x="288.8" y="267.8" font-size="12" fill="#fff">-115.4</text><text x="288.8" y="284.8" font-size="11" fill="#fff">L8:1</text><rect x="356.2" y="247.8" width="75.4" height="68.9" fill="rgb(193,112,138)" stroke="#eee" stroke-width="1"/><text x="364.2" y="267.8" font-size="12" fill="#fff">-112.8</text><text x="364.2" y="284.8" font-size="11" fill="#fff">L8:1</text><rect x="431.5" y="247.8" width="75.4" height="68.9" fill="rgb(191,114,137)" stroke="#eee" stroke-width="1"/><text x="439.5" y="267.8" font-size="12" fill="#fff">-110.2</text><text x="439.5" y="284.8" font-size="11" fill="#fff">L8:1</text><rect x="506.9" y="247.8" width="75.4" height="68.9" fill="rgb(189,116,136)" stroke="#eee" stroke-width="1"/><text x="514.9" y="267.8" font-size="12" fill="#fff">-107.4</text><text x="514.9" y="284.8" font-size="11" fill="#fff">L8:1</text><rect x="582.3" y="247.8" width="75.4" height="68.9" fill="rgb(187,118,135)" stroke="#eee" stroke-width="1"/><text x="590.3" y="267.8" font-size="12" fill="#fff">-104.5</text><text x="590.3" y="284.8" font-size="11" fill="#fff">L8:0</text><rect x="657.7" y="247.8" width="75.4" height="68.9" fill="rgb(187,118,135)" stroke="#eee" stroke-width="1"/><text x="665.7" y="267.8" font-size="12" fill="#fff">-104.8</text><text x="665.7" y="284.8" font-size="11" fill="#fff">L8:0</text><rect x="733.1" y="247.8" width="75.4" height="68.9" fill="rgb(188,117,136)" stroke="#eee" stroke-width="1"/><text x="741.1" y="267.8" font-size="12" fill="#fff">-105.0</text><text x="741.1" y="284.8" font-size="11" fill="#fff">L8:0</text><rect x="808.5" y="247.8" width="75.4" height="68.9" fill="rgb(187,118,135)" stroke="#eee" stroke-width="1"/><text x="816.5" y="267.8" font-size="12" fill="#fff">-104.9</text><text x="816.5" y="284.8" font-size="11" fill="#fff">L8:0</text><rect x="883.8" y="247.8" width="75.4" height="68.9" fill="rgb(187,118,135)" stroke="#eee" stroke-width="1"/><text x="891.8" y="267.8" font-size="12" fill="#fff">-104.6</text><text x="891.8" y="284.8" font-size="11" fill="#fff">L8:0</text><rect x="959.2" y="247.8" width="75.4" height="68.9" fill="rgb(187,118,135)" stroke="#eee" stroke-width="1"/><text x="967.2" y="267.8" font-size="12" fill="#fff">-103.9</text><text x="967.2" y="284.8" font-size="11" fill="#fff">L8:0</text><rect x="1034.6" y="247.8" width="75.4" height="68.9" fill="rgb(186,120,134)" stroke="#eee" stroke-width="1"/><text x="1042.6" y="267.8" font-size="12" fill="#fff">-102.3</text><text x="1042.6" y="284.8" font-size="11" fill="#fff">L8:0</text><rect x="130.0" y="316.7" width="75.4" height="68.9" fill="rgb(184,122,133)" stroke="#eee" stroke-width="1"/><text x="138.0" y="336.7" font-size="12" fill="#fff">-99.6</text><text x="138.0" y="353.7" font-size="11" fill="#fff">L8:2</text><rect x="205.4" y="316.7" width="75.4" height="68.9" fill="rgb(182,124,132)" stroke="#eee" stroke-width="1"/><text x="213.4" y="336.7" font-size="12" fill="#fff">-96.2</text><text x="213.4" y="353.7" font-size="11" fill="#fff">L8:1</text><rect x="280.8" y="316.7" width="75.4" height="68.9" fill="rgb(179,127,131)" stroke="#eee" stroke-width="1"/><text x="288.8" y="336.7" font-size="12" fill="#fff">-92.8</text><text x="288.8" y="353.7" font-size="11" fill="#fff">L8:1</text><rect x="356.2" y="316.7" width="75.4" height="68.9" fill="rgb(177,129,130)" stroke="#eee" stroke-width="1"/><text x="364.2" y="336.7" font-size="12" fill="#fff">-89.4</text><text x="364.2" y="353.7" font-size="11" fill="#fff">L8:1</text><rect x="431.5" y="316.7" width="75.4" height="68.9" fill="rgb(175,132,128)" stroke="#eee" stroke-width="1"/><text x="439.5" y="336.7" font-size="12" fill="#fff">-86.0</text><text x="439.5" y="353.7" font-size="11" fill="#fff">L8:1</text><rect x="506.9" y="316.7" width="75.4" height="68.9" fill="rgb(172,135,127)" stroke="#eee" stroke-width="1"/><text x="514.9" y="336.7" font-size="12" fill="#fff">-82.5</text><text x="514.9" y="353.7" font-size="11" fill="#fff">L8:1</text><rect x="582.3" y="316.7" width="75.4" height="68.9" fill="rgb(170,137,126)" stroke="#eee" stroke-width="1"/><text x="590.3" y="336.7" font-size="12" fill="#fff">-78.8</text><text x="590.3" y="353.7" font-size="11" fill="#fff">L8:0</text><rect x="657.7" y="316.7" width="75.4" height="68.9" fill="rgb(171,137,126)" stroke="#eee" stroke-width="1"/><text x="665.7" y="336.7" font-size="12" fill="#fff">-79.8</text><text x="665.7" y="353.7" font-size="11" fill="#fff">L8:0</text><rect x="733.1" y="316.7" width="75.4" height="68.9" fill="rgb(171,136,126)" stroke="#eee" stroke-width="1"/><text x="741.1" y="336.7" font-size="12" fill="#fff">-80.9</text><text x="741.1" y="353.7" font-size="11" fill="#fff">L8:0</text><rect x="808.5" y="316.7" width="75.4" height="68.9" fill="rgb(172,135,127)" stroke="#eee" stroke-width="1"/><text x="816.5" y="336.7" font-size="12" fill="#fff">-81.5</text><text x="816.5" y="353.7" font-size="11" fill="#fff">L8:0</text><rect x="883.8" y="316.7" width="75.4" height="68.9" fill="rgb(172,135,127)" stroke="#eee" stroke-width="1"/><text x="891.8" y="336.7" font-size="12" fill="#fff">-81.9</text><text x="891.8" y="353.7" font-size="11" fill="#fff">L8:0</text><rect x="959.2" y="316.7" width="75.4" height="68.9" fill="rgb(172,135,127)" stroke="#eee" stroke-width="1"/><text x="967.2" y="336.7" font-size="12" fill="#fff">-82.0</text><text x="967.2" y="353.7" font-size="11" fill="#fff">L8:0</text><rect x="1034.6" y="316.7" width="75.4" height="68.9" fill="rgb(172,136,126)" stroke="#eee" stroke-width="1"/><text x="1042.6" y="336.7" font-size="12" fill="#fff">-81.2</text><text x="1042.6" y="353.7" font-size="11" fill="#fff">L8:0</text><rect x="130.0" y="385.6" width="75.4" height="68.9" fill="rgb(169,138,125)" stroke="#eee" stroke-width="1"/><text x="138.0" y="405.6" font-size="12" fill="#fff">-77.7</text><text x="138.0" y="422.6" font-size="11" fill="#fff">L8:2</text><rect x="205.4" y="385.6" width="75.4" height="68.9" fill="rgb(167,141,124)" stroke="#eee" stroke-width="1"/><text x="213.4" y="405.6" font-size="12" fill="#fff">-73.5</text><text x="213.4" y="422.6" font-size="11" fill="#fff">L8:1</text><rect x="280.8" y="385.6" width="75.4" height="68.9" fill="rgb(164,145,122)" stroke="#eee" stroke-width="1"/><text x="288.8" y="405.6" font-size="12" fill="#fff">-69.3</text><text x="288.8" y="422.6" font-size="11" fill="#fff">L8:1</text><rect x="356.2" y="385.6" width="75.4" height="68.9" fill="rgb(161,148,120)" stroke="#eee" stroke-width="1"/><text x="364.2" y="405.6" font-size="12" fill="#fff">-65.1</text><text x="364.2" y="422.6" font-size="11" fill="#fff">L8:1</text><rect x="431.5" y="385.6" width="75.4" height="68.9" fill="rgb(158,151,119)" stroke="#eee" stroke-width="1"/><text x="439.5" y="405.6" font-size="12" fill="#fff">-61.0</text><text x="439.5" y="422.6" font-size="11" fill="#fff">L8:1</text><rect x="506.9" y="385.6" width="75.4" height="68.9" fill="rgb(155,154,117)" stroke="#eee" stroke-width="1"/><text x="514.9" y="405.6" font-size="12" fill="#fff">-56.6</text><text x="514.9" y="422.6" font-size="11" fill="#fff">L8:1</text><rect x="582.3" y="385.6" width="75.4" height="68.9" fill="rgb(152,158,115)" stroke="#eee" stroke-width="1"/><text x="590.3" y="405.6" font-size="12" fill="#fff">-52.1</text><text x="590.3" y="422.6" font-size="11" fill="#fff">L8:0</text><rect x="657.7" y="385.6" width="75.4" height="68.9" fill="rgb(154,156,116)" stroke="#eee" stroke-width="1"/><text x="665.7" y="405.6" font-size="12" fill="#fff">-54.0</text><text x="665.7" y="422.6" font-size="11" fill="#fff">L8:0</text><rect x="733.1" y="385.6" width="75.4" height="68.9" fill="rgb(155,155,117)" stroke="#eee" stroke-width="1"/><text x="741.1" y="405.6" font-size="12" fill="#fff">-55.8</text><text x="741.1" y="422.6" font-size="11" fill="#fff">L8:0</text><rect x="808.5" y="385.6" width="75.4" height="68.9" fill="rgb(156,154,117)" stroke="#eee" stroke-width="1"/><text x="816.5" y="405.6" font-size="12" fill="#fff">-57.2</text><text x="816.5" y="422.6" font-size="11" fill="#fff">L8:0</text><rect x="883.8" y="385.6" width="75.4" height="68.9" fill="rgb(156,153,118)" stroke="#eee" stroke-width="1"/><text x="891.8" y="405.6" font-size="12" fill="#fff">-58.5</text><text x="891.8" y="422.6" font-size="11" fill="#fff">L8:0</text><rect x="959.2" y="385.6" width="75.4" height="68.9" fill="rgb(157,152,118)" stroke="#eee" stroke-width="1"/><text x="967.2" y="405.6" font-size="12" fill="#fff">-59.4</text><text x="967.2" y="422.6" font-size="11" fill="#fff">L8:0</text><rect x="1034.6" y="385.6" width="75.4" height="68.9" fill="rgb(157,152,118)" stroke="#eee" stroke-width="1"/><text x="1042.6" y="405.6" font-size="12" fill="#fff">-59.4</text><text x="1042.6" y="422.6" font-size="11" fill="#fff">L8:0</text><rect x="130.0" y="454.4" width="75.4" height="68.9" fill="rgb(162,147,121)" stroke="#eee" stroke-width="1"/><text x="138.0" y="474.4" font-size="12" fill="#fff">-66.1</text><text x="138.0" y="491.4" font-size="11" fill="#fff">L8:2</text><rect x="205.4" y="454.4" width="75.4" height="68.9" fill="rgb(159,151,119)" stroke="#eee" stroke-width="1"/><text x="213.4" y="474.4" font-size="12" fill="#fff">-61.5</text><text x="213.4" y="491.4" font-size="11" fill="#fff">L8:1</text><rect x="280.8" y="454.4" width="75.4" height="68.9" fill="rgb(155,154,117)" stroke="#eee" stroke-width="1"/><text x="288.8" y="474.4" font-size="12" fill="#fff">-56.9</text><text x="288.8" y="491.4" font-size="11" fill="#fff">L8:1</text><rect x="356.2" y="454.4" width="75.4" height="68.9" fill="rgb(152,158,115)" stroke="#eee" stroke-width="1"/><text x="364.2" y="474.4" font-size="12" fill="#fff">-52.3</text><text x="364.2" y="491.4" font-size="11" fill="#fff">L8:1</text><rect x="431.5" y="454.4" width="75.4" height="68.9" fill="rgb(149,161,114)" stroke="#eee" stroke-width="1"/><text x="439.5" y="474.4" font-size="12" fill="#fff">-47.7</text><text x="439.5" y="491.4" font-size="11" fill="#fff">L8:1</text><rect x="506.9" y="454.4" width="75.4" height="68.9" fill="rgb(146,165,112)" stroke="#eee" stroke-width="1"/><text x="514.9" y="474.4" font-size="12" fill="#fff">-42.9</text><text x="514.9" y="491.4" font-size="11" fill="#fff">L8:1</text><rect x="582.3" y="454.4" width="75.4" height="68.9" fill="rgb(143,169,110)" stroke="#eee" stroke-width="1"/><text x="590.3" y="474.4" font-size="12" fill="#fff">-38.0</text><text x="590.3" y="491.4" font-size="11" fill="#fff">L8:0</text><rect x="657.7" y="454.4" width="75.4" height="68.9" fill="rgb(144,167,111)" stroke="#eee" stroke-width="1"/><text x="665.7" y="474.4" font-size="12" fill="#fff">-40.3</text><text x="665.7" y="491.4" font-size="11" fill="#fff">L8:0</text><rect x="733.1" y="454.4" width="75.4" height="68.9" fill="rgb(146,165,112)" stroke="#eee" stroke-width="1"/><text x="741.1" y="474.4" font-size="12" fill="#fff">-42.5</text><text x="741.1" y="491.4" font-size="11" fill="#fff">L8:0</text><rect x="808.5" y="454.4" width="75.4" height="68.9" fill="rgb(147,164,112)" stroke="#eee" stroke-width="1"/><text x="816.5" y="474.4" font-size="12" fill="#fff">-44.4</text><text x="816.5" y="491.4" font-size="11" fill="#fff">L8:0</text><rect x="883.8" y="454.4" width="75.4" height="68.9" fill="rgb(148,162,113)" stroke="#eee" stroke-width="1"/><text x="891.8" y="474.4" font-size="12" fill="#fff">-46.0</text><text x="891.8" y="491.4" font-size="11" fill="#fff">L8:0</text><rect x="959.2" y="454.4" width="75.4" height="68.9" fill="rgb(149,161,114)" stroke="#eee" stroke-width="1"/><text x="967.2" y="474.4" font-size="12" fill="#fff">-47.3</text><text x="967.2" y="491.4" font-size="11" fill="#fff">L8:0</text><rect x="1034.6" y="454.4" width="75.4" height="68.9" fill="rgb(149,161,114)" stroke="#eee" stroke-width="1"/><text x="1042.6" y="474.4" font-size="12" fill="#fff">-47.8</text><text x="1042.6" y="491.4" font-size="11" fill="#fff">L8:0</text><rect x="130.0" y="523.3" width="75.4" height="68.9" fill="rgb(131,182,103)" stroke="#eee" stroke-width="1"/><text x="138.0" y="543.3" font-size="12" fill="#fff">-19.9</text><text x="138.0" y="560.3" font-size="11" fill="#fff">L8:2</text><rect x="205.4" y="523.3" width="75.4" height="68.9" fill="rgb(127,187,101)" stroke="#eee" stroke-width="1"/><text x="213.4" y="543.3" font-size="12" fill="#fff">-13.5</text><text x="213.4" y="560.3" font-size="11" fill="#fff">L8:1</text><rect x="280.8" y="523.3" width="75.4" height="68.9" fill="rgb(122,192,98)" stroke="#eee" stroke-width="1"/><text x="288.8" y="543.3" font-size="12" fill="#fff">-7.2</text><text x="288.8" y="560.3" font-size="11" fill="#fff">L8:1</text><rect x="356.2" y="523.3" width="75.4" height="68.9" fill="rgb(118,197,96)" stroke="#eee" stroke-width="1"/><text x="364.2" y="543.3" font-size="12" fill="#fff">-0.9</text><text x="364.2" y="560.3" font-size="11" fill="#fff">L8:1</text><rect x="431.5" y="523.3" width="75.4" height="68.9" fill="rgb(114,202,93)" stroke="#eee" stroke-width="1"/><text x="439.5" y="543.3" font-size="12" fill="#fff">5.4</text><text x="439.5" y="560.3" font-size="11" fill="#fff">L8:1</text><rect x="506.9" y="523.3" width="75.4" height="68.9" fill="rgb(110,206,91)" stroke="#eee" stroke-width="1"/><text x="514.9" y="543.3" font-size="12" fill="#fff">11.9</text><text x="514.9" y="560.3" font-size="11" fill="#fff">L8:1</text><rect x="582.3" y="523.3" width="75.4" height="68.9" fill="rgb(105,212,88)" stroke="#eee" stroke-width="1"/><text x="590.3" y="543.3" font-size="12" fill="#fff">18.5</text><text x="590.3" y="560.3" font-size="11" fill="#fff">L8:0</text><rect x="657.7" y="523.3" width="75.4" height="68.9" fill="rgb(108,208,90)" stroke="#eee" stroke-width="1"/><text x="665.7" y="543.3" font-size="12" fill="#fff">14.5</text><text x="665.7" y="560.3" font-size="11" fill="#fff">L8:0</text><rect x="733.1" y="523.3" width="75.4" height="68.9" fill="rgb(111,205,92)" stroke="#eee" stroke-width="1"/><text x="741.1" y="543.3" font-size="12" fill="#fff">10.5</text><text x="741.1" y="560.3" font-size="11" fill="#fff">L8:0</text><rect x="808.5" y="523.3" width="75.4" height="68.9" fill="rgb(113,203,93)" stroke="#eee" stroke-width="1"/><text x="816.5" y="543.3" font-size="12" fill="#fff">7.0</text><text x="816.5" y="560.3" font-size="11" fill="#fff">L8:0</text><rect x="883.8" y="523.3" width="75.4" height="68.9" fill="rgb(115,200,94)" stroke="#eee" stroke-width="1"/><text x="891.8" y="543.3" font-size="12" fill="#fff">3.6</text><text x="891.8" y="560.3" font-size="11" fill="#fff">L8:0</text><rect x="959.2" y="523.3" width="75.4" height="68.9" fill="rgb(117,198,95)" stroke="#eee" stroke-width="1"/><text x="967.2" y="543.3" font-size="12" fill="#fff">0.7</text><text x="967.2" y="560.3" font-size="11" fill="#fff">L8:0</text><rect x="1034.6" y="523.3" width="75.4" height="68.9" fill="rgb(119,196,96)" stroke="#eee" stroke-width="1"/><text x="1042.6" y="543.3" font-size="12" fill="#fff">-1.5</text><text x="1042.6" y="560.3" font-size="11" fill="#fff">L8:0</text><rect x="130.0" y="592.2" width="75.4" height="68.9" fill="rgb(124,190,99)" stroke="#eee" stroke-width="1"/><text x="138.0" y="612.2" font-size="12" fill="#fff">-10.3</text><text x="138.0" y="629.2" font-size="11" fill="#fff">L8:2</text><rect x="205.4" y="592.2" width="75.4" height="68.9" fill="rgb(120,195,97)" stroke="#eee" stroke-width="1"/><text x="213.4" y="612.2" font-size="12" fill="#fff">-3.6</text><text x="213.4" y="629.2" font-size="11" fill="#fff">L8:1</text><rect x="280.8" y="592.2" width="75.4" height="68.9" fill="rgb(116,200,94)" stroke="#eee" stroke-width="1"/><text x="288.8" y="612.2" font-size="12" fill="#fff">3.0</text><text x="288.8" y="629.2" font-size="11" fill="#fff">L8:1</text><rect x="356.2" y="592.2" width="75.4" height="68.9" fill="rgb(111,205,92)" stroke="#eee" stroke-width="1"/><text x="364.2" y="612.2" font-size="12" fill="#fff">9.7</text><text x="364.2" y="629.2" font-size="11" fill="#fff">L8:1</text><rect x="431.5" y="592.2" width="75.4" height="68.9" fill="rgb(107,210,89)" stroke="#eee" stroke-width="1"/><text x="439.5" y="612.2" font-size="12" fill="#fff">16.4</text><text x="439.5" y="629.2" font-size="11" fill="#fff">L8:1</text><rect x="506.9" y="592.2" width="75.4" height="68.9" fill="rgb(102,215,87)" stroke="#eee" stroke-width="1"/><text x="514.9" y="612.2" font-size="12" fill="#fff">23.2</text><text x="514.9" y="629.2" font-size="11" fill="#fff">L8:1</text><rect x="582.3" y="592.2" width="75.4" height="68.9" fill="rgb(97,220,84)" stroke="#eee" stroke-width="1"/><text x="590.3" y="612.2" font-size="12" fill="#fff">30.1</text><text x="590.3" y="629.2" font-size="11" fill="#fff">L8:0</text><rect x="657.7" y="592.2" width="75.4" height="68.9" fill="rgb(100,217,86)" stroke="#eee" stroke-width="1"/><text x="665.7" y="612.2" font-size="12" fill="#fff">25.8</text><text x="665.7" y="629.2" font-size="11" fill="#fff">L8:0</text><rect x="733.1" y="592.2" width="75.4" height="68.9" fill="rgb(103,214,87)" stroke="#eee" stroke-width="1"/><text x="741.1" y="612.2" font-size="12" fill="#fff">21.5</text><text x="741.1" y="629.2" font-size="11" fill="#fff">L8:0</text><rect x="808.5" y="592.2" width="75.4" height="68.9" fill="rgb(106,211,89)" stroke="#eee" stroke-width="1"/><text x="816.5" y="612.2" font-size="12" fill="#fff">17.6</text><text x="816.5" y="629.2" font-size="11" fill="#fff">L8:0</text><rect x="883.8" y="592.2" width="75.4" height="68.9" fill="rgb(108,208,90)" stroke="#eee" stroke-width="1"/><text x="891.8" y="612.2" font-size="12" fill="#fff">13.9</text><text x="891.8" y="629.2" font-size="11" fill="#fff">L8:0</text><rect x="959.2" y="592.2" width="75.4" height="68.9" fill="rgb(110,206,91)" stroke="#eee" stroke-width="1"/><text x="967.2" y="612.2" font-size="12" fill="#fff">10.6</text><text x="967.2" y="629.2" font-size="11" fill="#fff">L8:0</text><rect x="1034.6" y="592.2" width="75.4" height="68.9" fill="rgb(112,204,92)" stroke="#eee" stroke-width="1"/><text x="1042.6" y="612.2" font-size="12" fill="#fff">8.1</text><text x="1042.6" y="629.2" font-size="11" fill="#fff">L8:0</text><rect x="130.0" y="661.1" width="75.4" height="68.9" fill="rgb(118,197,96)" stroke="#eee" stroke-width="1"/><text x="138.0" y="681.1" font-size="12" fill="#fff">-0.5</text><text x="138.0" y="698.1" font-size="11" fill="#fff">L8:2</text><rect x="205.4" y="661.1" width="75.4" height="68.9" fill="rgb(113,202,93)" stroke="#eee" stroke-width="1"/><text x="213.4" y="681.1" font-size="12" fill="#fff">6.5</text><text x="213.4" y="698.1" font-size="11" fill="#fff">L8:1</text><rect x="280.8" y="661.1" width="75.4" height="68.9" fill="rgb(109,208,90)" stroke="#eee" stroke-width="1"/><text x="288.8" y="681.1" font-size="12" fill="#fff">13.5</text><text x="288.8" y="698.1" font-size="11" fill="#fff">L8:1</text><rect x="356.2" y="661.1" width="75.4" height="68.9" fill="rgb(104,213,88)" stroke="#eee" stroke-width="1"/><text x="364.2" y="681.1" font-size="12" fill="#fff">20.6</text><text x="364.2" y="698.1" font-size="11" fill="#fff">L8:1</text><rect x="431.5" y="661.1" width="75.4" height="68.9" fill="rgb(99,218,85)" stroke="#eee" stroke-width="1"/><text x="439.5" y="681.1" font-size="12" fill="#fff">27.6</text><text x="439.5" y="698.1" font-size="11" fill="#fff">L8:1</text><rect x="506.9" y="661.1" width="75.4" height="68.9" fill="rgb(94,224,82)" stroke="#eee" stroke-width="1"/><text x="514.9" y="681.1" font-size="12" fill="#fff">34.8</text><text x="514.9" y="698.1" font-size="11" fill="#fff">L8:1</text><rect x="582.3" y="661.1" width="75.4" height="68.9" fill="rgb(90,230,80)" stroke="#eee" stroke-width="1"/><text x="590.3" y="681.1" font-size="12" fill="#fff">42.1</text><text x="590.3" y="698.1" font-size="11" fill="#fff">L8:0</text><rect x="657.7" y="661.1" width="75.4" height="68.9" fill="rgb(93,226,81)" stroke="#eee" stroke-width="1"/><text x="665.7" y="681.1" font-size="12" fill="#fff">37.4</text><text x="665.7" y="698.1" font-size="11" fill="#fff">L8:0</text><rect x="733.1" y="661.1" width="75.4" height="68.9" fill="rgb(96,222,83)" stroke="#eee" stroke-width="1"/><text x="741.1" y="681.1" font-size="12" fill="#fff">32.7</text><text x="741.1" y="698.1" font-size="11" fill="#fff">L8:0</text><rect x="808.5" y="661.1" width="75.4" height="68.9" fill="rgb(99,219,85)" stroke="#eee" stroke-width="1"/><text x="816.5" y="681.1" font-size="12" fill="#fff">28.4</text><text x="816.5" y="698.1" font-size="11" fill="#fff">L8:0</text><rect x="883.8" y="661.1" width="75.4" height="68.9" fill="rgb(101,216,86)" stroke="#eee" stroke-width="1"/><text x="891.8" y="681.1" font-size="12" fill="#fff">24.4</text><text x="891.8" y="698.1" font-size="11" fill="#fff">L8:0</text><rect x="959.2" y="661.1" width="75.4" height="68.9" fill="rgb(104,213,88)" stroke="#eee" stroke-width="1"/><text x="967.2" y="681.1" font-size="12" fill="#fff">20.7</text><text x="967.2" y="698.1" font-size="11" fill="#fff">L8:0</text><rect x="1034.6" y="661.1" width="75.4" height="68.9" fill="rgb(106,211,89)" stroke="#eee" stroke-width="1"/><text x="1042.6" y="681.1" font-size="12" fill="#fff">17.8</text><text x="1042.6" y="698.1" font-size="11" fill="#fff">L8:0</text><rect x="584.3" y="663.1" width="71.4" height="64.9" fill="none" stroke="#111" stroke-width="3"/><text x="633.7" y="679.1" font-size="14" fill="#111">#1</text><rect x="659.7" y="663.1" width="71.4" height="64.9" fill="none" stroke="#111" stroke-width="3"/><text x="709.1" y="679.1" font-size="14" fill="#111">#2</text><rect x="735.1" y="663.1" width="71.4" height="64.9" fill="none" stroke="#111" stroke-width="3"/><text x="784.5" y="679.1" font-size="14" fill="#111">#3</text><rect x="1160.0" y="140" width="21.0" height="22" fill="rgb(230,70,160)"/><rect x="1180.0" y="140" width="21.0" height="22" fill="rgb(216,85,152)"/><rect x="1200.0" y="140" width="21.0" height="22" fill="rgb(202,102,144)"/><rect x="1220.0" y="140" width="21.0" height="22" fill="rgb(188,118,136)"/><rect x="1240.0" y="140" width="21.0" height="22" fill="rgb(174,134,128)"/><rect x="1260.0" y="140" width="21.0" height="22" fill="rgb(160,150,120)"/><rect x="1280.0" y="140" width="21.0" height="22" fill="rgb(146,166,112)"/><rect x="1300.0" y="140" width="21.0" height="22" fill="rgb(132,182,104)"/><rect x="1320.0" y="140" width="21.0" height="22" fill="rgb(118,198,96)"/><rect x="1340.0" y="140" width="21.0" height="22" fill="rgb(104,214,88)"/><rect x="1360.0" y="140" width="21.0" height="22" fill="rgb(90,230,80)"/><text x="1160" y="132" font-size="12" fill="#333">net -168.0 → 42.1</text><text x="1160" y="200" font-size="13" fill="#222">#1 S6 D8 net=42.07</text><text x="1160" y="222" font-size="13" fill="#222">#2 S7 D8 net=37.37</text><text x="1160" y="244" font-size="13" fill="#222">#3 S8 D8 net=32.72</text><text x="1160" y="282" font-size="12" fill="#666">※濃い緑ほど改善寄り、赤ほど悪化寄り</text><text x="1160" y="304" font-size="12" fill="#666">※太枠: 現在の暫定基準(S6,D0)</text></svg>